Genre: Action | Adventure | Drama
Language:English
 
http://www.imdb.com/title/tt1767319/

Source:BluRay.720p.DTS.x264-CHD Thanks!

Format : MPEG-4
Format profile : Base Media
Codec ID : isom
File size : 1.24 GiB
Duration : 1h 36mn
Overall bit rate : 1 854 Kbps

Video
ID : 1
Format : AVC
Format/Info : Advanced Video Codec
Format profile : High@L5.1
Format settings, CABAC : Yes
Format settings, ReFrames : 3 frames
Format settings, GOP : N=1
Codec ID : avc1
Codec ID/Info : Advanced Video Coding
Duration : 1h 36mn
Bit rate mode : Variable
Bit rate : 1 419 Kbps
Nominal bit rate : 1 500 Kbps
Maximum bit rate : 6 526 Kbps
Width : 720 pixels
Height : 400 pixels
Display aspect ratio : 16:9
Frame rate mode : Constant
Frame rate : 23.976 fps
Color space : YUV
Chroma subsampling : 4:2:0
Bit depth : 8 bits
Scan type : Progressive
Bits/(Pixel*Frame) : 0.206
Stream size : 975 MiB (77%)
Writing library : x264

Audio
ID : 2
Format : AAC
Format/Info : Advanced Audio Codec
Format version : Version 4
Format profile : LC
Format settings, SBR : No
Codec ID : 40
Duration : 1h 36mn
Bit rate mode : Variable
Bit rate : 431 Kbps
Maximum bit rate : 517 Kbps
Channel(s) : 6 channels
Channel positions : Front: L C R, Side: L R, LFE
Sampling rate : 48.0 KHz
Stream size : 296 MiB (23%)


Plot:
An ex-Special Forces soldier gets thrown back to medieval times to fulfill an ancient prophecy and ends up finding redemption for his own battlefield experiences
